<svg xmlns="http://www.w3.org/2000/svg" width="94.848" height="20.928" viewBox="0 0 94.848 20.928"><path d="M2.65-6.99a3.543,3.543,0,0,1,2.19.56,1.9,1.9,0,0,1,.72,1.59,2.206,2.206,0,0,1-.21,1.005,1.71,1.71,0,0,1-.6.67A2.723,2.723,0,0,1,3.8-2.8,6.422,6.422,0,0,1,2.52-2.68H1.58V0H.9V-6.8a4.866,4.866,0,0,1,.845-.145Q2.23-6.99,2.65-6.99Zm.03.59q-.38,0-.645.025L1.58-6.33v3.06h.86a6.924,6.924,0,0,0,.995-.065,2.216,2.216,0,0,0,.76-.24A1.213,1.213,0,0,0,4.68-4.06a1.632,1.632,0,0,0,.17-.79,1.426,1.426,0,0,0-.185-.76,1.366,1.366,0,0,0-.49-.475A2.147,2.147,0,0,0,3.48-6.33,4.52,4.52,0,0,0,2.68-6.4Zm8.41,3.82a3.343,3.343,0,0,1-.175,1.11,2.475,2.475,0,0,1-.49.85,2.232,2.232,0,0,1-.745.545,2.274,2.274,0,0,1-.95.2,2.274,2.274,0,0,1-.95-.2A2.232,2.232,0,0,1,7.035-.62a2.475,2.475,0,0,1-.49-.85A3.342,3.342,0,0,1,6.37-2.58a3.342,3.342,0,0,1,.175-1.11,2.531,2.531,0,0,1,.49-.855A2.2,2.2,0,0,1,7.78-5.1a2.274,2.274,0,0,1,.95-.195,2.274,2.274,0,0,1,.95.195,2.2,2.2,0,0,1,.745.55,2.531,2.531,0,0,1,.49.855A3.343,3.343,0,0,1,11.09-2.58Zm-.69,0a2.44,2.44,0,0,0-.45-1.545A1.467,1.467,0,0,0,8.73-4.7a1.467,1.467,0,0,0-1.22.575A2.44,2.44,0,0,0,7.06-2.58a2.419,2.419,0,0,0,.45,1.54,1.472,1.472,0,0,0,1.22.57,1.472,1.472,0,0,0,1.22-.57A2.419,2.419,0,0,0,10.4-2.58Zm5.43-2.59q.09.5.235,1.065t.32,1.15q.175.585.37,1.155t.4,1.07q.17-.38.36-.925t.38-1.15q.19-.605.355-1.22T18.52-5.17h.64q-.36,1.52-.785,2.78T17.44,0h-.61q-.15-.35-.315-.785t-.34-.93q-.175-.5-.34-1.04T15.52-3.87q-.15.57-.315,1.115t-.34,1.04q-.175.495-.34.93T14.21,0h-.62q-.51-1.13-.935-2.39T11.87-5.17h.69q.11.53.275,1.145T13.19-2.8q.19.6.385,1.145t.365.92q.19-.5.385-1.07t.365-1.15q.17-.58.32-1.145t.26-1.065Zm4.11,2.58a3.282,3.282,0,0,1,.2-1.185,2.61,2.61,0,0,1,.51-.845,2.008,2.008,0,0,1,.72-.505A2.194,2.194,0,0,1,22.2-5.29a1.949,1.949,0,0,1,1.515.62,2.765,2.765,0,0,1,.565,1.91q0,.08,0,.16t-.015.15H20.63A2.286,2.286,0,0,0,21.1-.99a1.754,1.754,0,0,0,1.4.51,2.829,2.829,0,0,0,.84-.1,3.506,3.506,0,0,0,.45-.17l.12.56a2.7,2.7,0,0,1-.525.19,3.313,3.313,0,0,1-.905.11,3.013,3.013,0,0,1-1.16-.2,2.076,2.076,0,0,1-.79-.56,2.214,2.214,0,0,1-.45-.855A3.977,3.977,0,0,1,19.94-2.59ZM23.61-3a2.053,2.053,0,0,0-.38-1.26,1.231,1.231,0,0,0-1.02-.45,1.358,1.358,0,0,0-.625.14,1.587,1.587,0,0,0-.48.375,1.742,1.742,0,0,0-.32.545A2.236,2.236,0,0,0,20.65-3Zm3.88-2.27a3.5,3.5,0,0,1,.6.05,1.855,1.855,0,0,1,.4.1l-.13.56a1.446,1.446,0,0,0-.325-.085,3.71,3.71,0,0,0-.645-.045,3.054,3.054,0,0,0-.675.06,1.861,1.861,0,0,0-.335.1V0h-.65V-4.93a4.794,4.794,0,0,1,.69-.225A4.289,4.289,0,0,1,27.49-5.27Zm1.67,2.68a3.282,3.282,0,0,1,.2-1.185,2.61,2.61,0,0,1,.51-.845,2.008,2.008,0,0,1,.72-.505,2.194,2.194,0,0,1,.835-.165,1.949,1.949,0,0,1,1.515.62A2.765,2.765,0,0,1,33.5-2.76q0,.08,0,.16t-.015.15H29.85a2.286,2.286,0,0,0,.47,1.46,1.754,1.754,0,0,0,1.4.51,2.829,2.829,0,0,0,.84-.1,3.506,3.506,0,0,0,.45-.17l.12.56A2.7,2.7,0,0,1,32.6,0a3.313,3.313,0,0,1-.9.11,3.013,3.013,0,0,1-1.16-.2,2.076,2.076,0,0,1-.79-.56A2.214,2.214,0,0,1,29.3-1.5,3.977,3.977,0,0,1,29.16-2.59ZM32.83-3a2.053,2.053,0,0,0-.38-1.26,1.231,1.231,0,0,0-1.02-.45,1.358,1.358,0,0,0-.625.14,1.587,1.587,0,0,0-.48.375,1.742,1.742,0,0,0-.32.545A2.236,2.236,0,0,0,29.87-3ZM39.06-.16a5.846,5.846,0,0,1-.74.19,5.972,5.972,0,0,1-1.14.09,2.778,2.778,0,0,1-1.035-.185,2.237,2.237,0,0,1-.8-.535,2.432,2.432,0,0,1-.52-.85,3.24,3.24,0,0,1-.185-1.13A3.616,3.616,0,0,1,34.8-3.665a2.472,2.472,0,0,1,.455-.855,2.068,2.068,0,0,1,.735-.56,2.357,2.357,0,0,1,.995-.2,2.45,2.45,0,0,1,.885.145,2.313,2.313,0,0,1,.545.275V-7.64l.65-.12Zm-.65-4.07a2.185,2.185,0,0,0-.225-.15,2.143,2.143,0,0,0-.315-.15,2.549,2.549,0,0,0-.39-.115,2.1,2.1,0,0,0-.44-.045,1.723,1.723,0,0,0-.805.17,1.451,1.451,0,0,0-.525.455,1.91,1.91,0,0,0-.29.67,3.571,3.571,0,0,0-.09.815,2.206,2.206,0,0,0,.51,1.565,1.762,1.762,0,0,0,1.35.545,5.347,5.347,0,0,0,.775-.045,2.878,2.878,0,0,0,.445-.1Zm5.3-.63a2.313,2.313,0,0,1,.545-.275,2.45,2.45,0,0,1,.885-.145,2.357,2.357,0,0,1,1,.2,2.068,2.068,0,0,1,.735.56,2.472,2.472,0,0,1,.455.855A3.616,3.616,0,0,1,47.48-2.58,3.24,3.24,0,0,1,47.3-1.45a2.432,2.432,0,0,1-.52.85,2.237,2.237,0,0,1-.8.535A2.778,2.778,0,0,1,44.94.12,5.972,5.972,0,0,1,43.8.03a5.846,5.846,0,0,1-.74-.19V-7.64l.65-.12Zm0,4.25a2.878,2.878,0,0,0,.445.1,5.347,5.347,0,0,0,.775.045,1.762,1.762,0,0,0,1.35-.545,2.206,2.206,0,0,0,.51-1.565,3.571,3.571,0,0,0-.09-.815,1.91,1.91,0,0,0-.29-.67,1.451,1.451,0,0,0-.525-.455,1.723,1.723,0,0,0-.805-.17,2.1,2.1,0,0,0-.44.045,2.549,2.549,0,0,0-.39.115,2.143,2.143,0,0,0-.315.15,2.186,2.186,0,0,0-.225.15ZM50.3.11q-.33-.61-.635-1.27T49.095-2.5q-.265-.675-.485-1.35T48.23-5.17h.69q.11.48.28,1.035t.385,1.145q.215.59.475,1.21t.56,1.22q.22-.62.39-1.17t.315-1.1q.145-.545.28-1.115t.285-1.23h.65q-.32,1.45-.73,2.82A24.811,24.811,0,0,1,50.92.16a5.765,5.765,0,0,1-.39.775,2.249,2.249,0,0,1-.445.535,1.578,1.578,0,0,1-.57.31,2.612,2.612,0,0,1-.765.1,1.617,1.617,0,0,1-.455-.06,1.442,1.442,0,0,1-.255-.09l.13-.54a.949.949,0,0,0,.225.085,1.344,1.344,0,0,0,.385.055,1.961,1.961,0,0,0,.505-.06,1.083,1.083,0,0,0,.4-.2A1.507,1.507,0,0,0,50.015.69,3.62,3.62,0,0,0,50.3.11Zm-17.768,13q-.684,0-1.362-.042a9.626,9.626,0,0,1-1.41-.2V4.8a11.974,11.974,0,0,1,1.26-.162q.684-.054,1.272-.054A8.662,8.662,0,0,1,33.75,4.7a3.453,3.453,0,0,1,1.146.39,2.043,2.043,0,0,1,.75.726,2.123,2.123,0,0,1,.27,1.11,1.762,1.762,0,0,1-.96,1.572,1.965,1.965,0,0,1,1.08.816,2.347,2.347,0,0,1,.288,1.164,2.236,2.236,0,0,1-.954,1.968A5,5,0,0,1,32.532,13.108Zm-.948-3.732v2.148q.2.024.444.036t.528.012a3.243,3.243,0,0,0,1.356-.24.89.89,0,0,0,.516-.888A.87.87,0,0,0,34,9.622a2.53,2.53,0,0,0-1.236-.246Zm0-1.428H32.5a2.541,2.541,0,0,0,1.236-.222.769.769,0,0,0,.372-.714A.734.734,0,0,0,33.72,6.3a2.468,2.468,0,0,0-1.128-.2q-.24,0-.516.006t-.492.03ZM43.608,9.832a4.1,4.1,0,0,1-.216,1.362,2.959,2.959,0,0,1-.624,1.056,2.808,2.808,0,0,1-.978.678,3.491,3.491,0,0,1-2.544,0,2.808,2.808,0,0,1-.978-.678,3.1,3.1,0,0,1-.636-1.056A3.908,3.908,0,0,1,37.4,9.832a3.769,3.769,0,0,1,.234-1.356,3.075,3.075,0,0,1,.648-1.044,2.91,2.91,0,0,1,.984-.672,3.365,3.365,0,0,1,2.5,0,2.847,2.847,0,0,1,.978.672,3.05,3.05,0,0,1,.636,1.044A3.858,3.858,0,0,1,43.608,9.832Zm-1.824,0a2.248,2.248,0,0,0-.33-1.3,1.079,1.079,0,0,0-.942-.474,1.094,1.094,0,0,0-.948.474,2.217,2.217,0,0,0-.336,1.3,2.275,2.275,0,0,0,.336,1.314,1.086,1.086,0,0,0,.948.486,1.071,1.071,0,0,0,.942-.486A2.307,2.307,0,0,0,41.784,9.832Zm6.9-.456q-.24.912-.51,1.812T47.6,13H46.212q-.216-.5-.468-1.2t-.522-1.518q-.27-.822-.552-1.74t-.546-1.854h1.884l.21.942q.114.51.24,1.05t.264,1.086q.138.546.282,1.05.156-.528.306-1.08T47.6,8.65q.138-.534.264-1.032t.222-.93h1.3q.1.432.216.93t.252,1.032q.132.534.276,1.086t.3,1.08q.144-.5.288-1.05t.27-1.086q.126-.54.24-1.05l.21-.942h1.86q-.264.936-.546,1.854t-.552,1.74q-.27.822-.528,1.518T51.192,13H49.8q-.3-.912-.588-1.812T48.684,9.376Zm5.124.516a3.86,3.86,0,0,1,.258-1.47,3.152,3.152,0,0,1,.678-1.05,2.82,2.82,0,0,1,.966-.636,3.025,3.025,0,0,1,1.122-.216,2.788,2.788,0,0,1,2.124.822,3.387,3.387,0,0,1,.78,2.418q0,.156-.012.342t-.024.33H55.644a1.188,1.188,0,0,0,.516.876,2.074,2.074,0,0,0,1.224.324,5.167,5.167,0,0,0,.966-.09,3.646,3.646,0,0,0,.774-.222l.24,1.452a2.469,2.469,0,0,1-.384.144,5.025,5.025,0,0,1-.534.126q-.294.054-.63.09a6.3,6.3,0,0,1-.672.036,3.978,3.978,0,0,1-1.482-.252,2.887,2.887,0,0,1-1.044-.69,2.739,2.739,0,0,1-.612-1.038A4.112,4.112,0,0,1,53.808,9.892Zm4.2-.684a1.845,1.845,0,0,0-.078-.444,1.109,1.109,0,0,0-.2-.384,1.086,1.086,0,0,0-.348-.276A1.134,1.134,0,0,0,56.856,8a1.2,1.2,0,0,0-.516.1,1.066,1.066,0,0,0-.36.27,1.208,1.208,0,0,0-.222.39,2.559,2.559,0,0,0-.114.45ZM62.9,13H61.116V6.688H62.9Zm.168-8.136a.981.981,0,0,1-.318.774,1.138,1.138,0,0,1-1.5,0,.981.981,0,0,1-.318-.774.981.981,0,0,1,.318-.774,1.138,1.138,0,0,1,1.5,0A.981.981,0,0,1,63.072,4.864ZM72.36,13q-.348-.7-.762-1.41a17.052,17.052,0,0,0-.954-1.458q-.168.216-.426.6t-.516.816q-.258.432-.486.828T68.88,13H66.744q.528-.972,1.23-2.04T69.54,8.692L66.864,4.684h2.268l1.62,2.592,1.584-2.592h2.136l-2.64,4.032a28.58,28.58,0,0,1,1.692,2.418q.684,1.11,1.08,1.866Zm3.324-8.316h1.872V13H75.684ZM85.044,13q-.132-.432-.294-.888t-.318-.912h-3.24q-.156.456-.318.912T80.58,13H78.636q.468-1.344.888-2.484t.822-2.148q.4-1.008.792-1.914t.81-1.77h1.788q.408.864.8,1.77t.8,1.914q.4,1.008.822,2.148T87.048,13ZM82.8,6.568q-.06.18-.18.492l-.276.72q-.156.408-.342.9t-.378,1.032h2.364q-.192-.54-.372-1.032t-.342-.9q-.162-.408-.282-.72T82.8,6.568Zm6.6,2.268a3.78,3.78,0,0,0,.15,1.1,2.522,2.522,0,0,0,.432.846,1.912,1.912,0,0,0,.69.546,2.363,2.363,0,0,0,1.866,0,1.9,1.9,0,0,0,.7-.546,2.522,2.522,0,0,0,.432-.846,3.78,3.78,0,0,0,.15-1.1,3.841,3.841,0,0,0-.15-1.11,2.515,2.515,0,0,0-.432-.852,1.9,1.9,0,0,0-.7-.546,2.185,2.185,0,0,0-.93-.192,2.118,2.118,0,0,0-.936.2,1.972,1.972,0,0,0-.69.552,2.515,2.515,0,0,0-.432.852A3.8,3.8,0,0,0,89.4,8.836Zm6.348,0a5.117,5.117,0,0,1-.318,1.878,3.862,3.862,0,0,1-.87,1.356,3.572,3.572,0,0,1-1.314.822,4.774,4.774,0,0,1-1.638.276A4.652,4.652,0,0,1,90,12.892a3.7,3.7,0,0,1-1.32-.822,3.843,3.843,0,0,1-.888-1.356,5.032,5.032,0,0,1-.324-1.878A4.872,4.872,0,0,1,87.8,6.958,4,4,0,0,1,88.71,5.6a3.726,3.726,0,0,1,1.32-.828,4.533,4.533,0,0,1,1.578-.276,4.652,4.652,0,0,1,1.608.276,3.657,3.657,0,0,1,1.32.828,3.906,3.906,0,0,1,.888,1.362A5.033,5.033,0,0,1,95.748,8.836Z" transform="translate(-0.9 7.76)" fill="#9d9d9d"/></svg>