<svg xmlns="http://www.w3.org/2000/svg" width="96.554" height="20.851" viewBox="0 0 96.554 20.851"><g transform="translate(-105.759 -106.901)"><path d="M105.759,116.42H107.4v.712a2.2,2.2,0,0,1,1.8-.858,1.8,1.8,0,0,1,1.715.886,2.261,2.261,0,0,1,2.423-.817,1.537,1.537,0,0,1,1.322,1.6c.01,1.631.013,3.262.026,4.893,0,.306.038.613.06.941h-1.721v-.412q0-2.279,0-4.558a3.154,3.154,0,0,0-.037-.595.9.9,0,0,0-.95-.818.925.925,0,0,0-.969.891,6.782,6.782,0,0,0-.044.819c0,1.543,0,3.086,0,4.661h-1.6v-.382c0-1.557,0-3.114,0-4.67a2.583,2.583,0,0,0-.068-.589.847.847,0,0,0-.864-.729.893.893,0,0,0-.953.675,3.439,3.439,0,0,0-.12.882c-.012,1.469-.005,2.939-.005,4.408v.416H105.8v-.457q0-2.84,0-5.679c0-.159-.028-.318-.043-.477Z" transform="translate(0 -6.455)" fill="#9d9d9d" fill-rule="evenodd"/><path d="M173.982,106.9v3.859a.828.828,0,0,0,.15-.109,2.114,2.114,0,0,1,2.156-.8,1.606,1.606,0,0,1,1.5,1.807c.01,1.431,0,2.863,0,4.3,0,.446.037.892.058,1.368h-1.667c-.006-.125-.017-.257-.018-.388,0-1.507,0-3.013,0-4.519a3.048,3.048,0,0,0-.091-.773.879.879,0,0,0-.87-.689.9.9,0,0,0-.973.546,3.606,3.606,0,0,0-.227,1.157c-.026,1.419-.01,2.838-.01,4.257v.416h-1.581c-.009-.128-.024-.236-.024-.345q0-4.893,0-9.785a2.959,2.959,0,0,1,.029-.3Z" transform="translate(-45.878)" fill="#9d9d9d" fill-rule="evenodd"/><path d="M402.362,157.641a2.39,2.39,0,0,1-1.729-2.193,7.306,7.306,0,0,1,.161-3.468,2.254,2.254,0,0,1,2.978-1.547,1.742,1.742,0,0,1,1.128,1.013,5.544,5.544,0,0,1,.362,2.579h-3.873a3.638,3.638,0,0,0,.521,2.508,1.312,1.312,0,0,0,2.07-.074,7.882,7.882,0,0,0,.527-1.266h.655a2.412,2.412,0,0,1-1.752,2.449Zm2.077-4.288c-.078-.807,0-1.658-.769-2.161a1.377,1.377,0,0,0-1.619.049c-.7.524-.639,1.33-.681,2.112Z" transform="translate(-202.961 -29.889)" fill="#9d9d9d" fill-rule="evenodd"/><path d="M271.716,157.693a2.744,2.744,0,0,1-1.946-2.7,7.136,7.136,0,0,1,.164-2.774,2.248,2.248,0,0,1,2.817-1.774,2.032,2.032,0,0,1,1.564,1.452,6.628,6.628,0,0,1,0,4.283,2.244,2.244,0,0,1-1.7,1.511Zm-1.211-3.7a6.086,6.086,0,0,0,.493,2.266,1.277,1.277,0,0,0,2.006.453,1.829,1.829,0,0,0,.5-.77,6.305,6.305,0,0,0,0-3.848,1.362,1.362,0,0,0-1.3-1.05,1.317,1.317,0,0,0-1.308,1.027A19.583,19.583,0,0,0,270.505,154Z" transform="translate(-112.896 -29.941)" fill="#9d9d9d" fill-rule="evenodd"/><path d="M377.212,158.06a1.961,1.961,0,0,1-1.4-2.182c0-1.642,0-3.284,0-4.958h.817c.006.135.017.279.018.423,0,1.381,0,2.763,0,4.145a4.818,4.818,0,0,0,.045.744,1.166,1.166,0,0,0,.809,1.1,1.323,1.323,0,0,0,1.385-.423,1.613,1.613,0,0,0,.438-1.155c-.007-1.469,0-2.937,0-4.407v-.43h.873v6.972h-.734v-.609l-1.351.782Z" transform="translate(-185.957 -30.308)" fill="#9d9d9d" fill-rule="evenodd"/><path d="M190.273,158.049a1.848,1.848,0,0,1-1.383-1.966c-.023-1.716-.007-3.432-.007-5.176h.85v.4q0,2.2,0,4.407a2.92,2.92,0,0,0,.031.558c.1.5.295.943.853,1.062a1.352,1.352,0,0,0,1.4-.5,1.822,1.822,0,0,0,.4-1.214q0-2.129,0-4.257v-.46h.854v6.98h-.74v-.61l-1.355.78Z" transform="translate(-57.236 -30.297)" fill="#9d9d9d" fill-rule="evenodd"/><path d="M226.146,157.673a.326.326,0,0,0-.1-.051,1.769,1.769,0,0,1-1.445-2.167h.781c.024.177.047.347.072.516a1.053,1.053,0,0,0,.865,1.029,1.232,1.232,0,0,0,1.408-.5,1.325,1.325,0,0,0-.183-1.558,7.507,7.507,0,0,0-1.078-.719c-.295-.183-.617-.325-.9-.524a1.908,1.908,0,0,1-.743-2.207,1.694,1.694,0,0,1,1.644-1.122,1.765,1.765,0,0,1,2.183,2H227.9c-.028-.128-.059-.269-.088-.41a.964.964,0,0,0-1-.919,1.084,1.084,0,0,0-1.127.56,1.1,1.1,0,0,0,.326,1.343,6.034,6.034,0,0,0,.844.539,12.35,12.35,0,0,1,1.126.652,2.043,2.043,0,0,1,.159,3.052,4.3,4.3,0,0,1-1.025.485Z" transform="translate(-81.824 -29.921)" fill="#9d9d9d" fill-rule="evenodd"/><path d="M325.19,157.668a1.144,1.144,0,0,0-.17-.066,1.622,1.622,0,0,1-1.394-1.568c-.018-.184-.02-.37-.031-.58h.813a7.36,7.36,0,0,0,.163.849c.176.564.646.791,1.389.7a1.026,1.026,0,0,0,.952-.978,1.441,1.441,0,0,0-.835-1.494c-.5-.285-1.009-.54-1.49-.846a1.721,1.721,0,0,1-.81-1.4c-.075-1.124.464-1.736,1.668-1.909a1.8,1.8,0,0,1,2.267,1.98h-.794c-.028-.16-.052-.329-.087-.495a1.115,1.115,0,1,0-1.855,1.013,6.023,6.023,0,0,0,.832.558c.32.19.663.342.983.532a2.048,2.048,0,0,1,.833,2.573,1.573,1.573,0,0,1-1.144,1.031l-.317.1Z" transform="translate(-150.003 -29.916)" fill="#9d9d9d" fill-rule="evenodd"/><path d="M342.01,157.585c-.129-.04-.258-.081-.386-.12a1.869,1.869,0,0,1-1.374-1.848,22.554,22.554,0,0,1,.061-3.644,2.2,2.2,0,0,1,3.475-1.309,1.892,1.892,0,0,1,.634,1.74h-.81c-.009-.126-.015-.259-.029-.391a1.087,1.087,0,0,0-1.089-1.066,1.113,1.113,0,0,0-1.223.823,8.73,8.73,0,0,0-.2,1.772,13.447,13.447,0,0,0,.139,2.265,1.169,1.169,0,0,0,1.6,1.038,1,1,0,0,0,.732-.853c.04-.193.055-.39.085-.609h.774a1.8,1.8,0,0,1-1.038,2.038c-.148.06-.3.109-.452.163Z" transform="translate(-161.442 -29.833)" fill="#9d9d9d" fill-rule="evenodd"/><path d="M290.514,157.594a.541.541,0,0,0-.13-.065,1.8,1.8,0,0,1-1.548-1.558,11.017,11.017,0,0,1,.014-4.118,2.223,2.223,0,0,1,3.445-1.194,1.911,1.911,0,0,1,.652,1.758h-.786c-.019-.126-.04-.257-.058-.388a1.089,1.089,0,0,0-1.115-1.076,1.152,1.152,0,0,0-1.238.962,10.731,10.731,0,0,0-.029,3.894,1.166,1.166,0,0,0,1.524,1.067,1.02,1.02,0,0,0,.839-.967c.025-.17.044-.34.066-.523h.766a1.789,1.789,0,0,1-1.06,2.059c-.124.048-.247.1-.37.151Z" transform="translate(-125.939 -29.842)" fill="#9d9d9d" fill-rule="evenodd"/><path d="M198.644,120.465h-4.021a3.074,3.074,0,0,0,.42,1.932.969.969,0,0,0,1.692-.221,5.228,5.228,0,0,0,.177-.717h1.658a2.193,2.193,0,0,1-.973,1.977,3.1,3.1,0,0,1-3.953-.406,3.2,3.2,0,0,1-.552-1.2,8.16,8.16,0,0,1-.012-3.481,2.618,2.618,0,0,1,3.192-2.04,2.4,2.4,0,0,1,2.3,2.368c.05.481.051.968.072,1.452C198.648,120.224,198.644,120.321,198.644,120.465Zm-4.1-1.072h2.469c-.073-.451-.107-.881-.216-1.291a.889.889,0,0,0-.914-.726.906.906,0,0,0-1.023.627A12.71,12.71,0,0,0,194.545,119.393Z" transform="translate(-60.005 -6.454)" fill="#9d9d9d" fill-rule="evenodd"/><path d="M138.2,116.8h1.623v.39c0,1.531,0,3.062,0,4.593a2.967,2.967,0,0,0,.06.628.887.887,0,0,0,.935.789.955.955,0,0,0,1.015-.759,2.96,2.96,0,0,0,.083-.7c.007-1.506,0-3.012,0-4.519v-.419h1.645v7.339h-1.635v-.82a2.159,2.159,0,0,1-2.291.94,1.553,1.553,0,0,1-1.43-1.558C138.182,120.755,138.2,118.8,138.2,116.8Z" transform="translate(-22.336 -6.819)" fill="#9d9d9d" fill-rule="evenodd"/><path d="M244.5,116.787h1.62v.405c0,1.606,0,3.212,0,4.818,0,.609.22.983.626,1.122a1.024,1.024,0,0,0,1.4-.818,5.266,5.266,0,0,0,.069-.892c.007-1.53,0-3.061,0-4.619h1.62v7.33h-1.621v-.786c-.188.2-.309.353-.452.479a2.311,2.311,0,0,1-2.62.129,1.357,1.357,0,0,1-.638-1.09C244.486,120.851,244.5,118.837,244.5,116.787Z" transform="translate(-95.534 -6.808)" fill="#9d9d9d" fill-rule="evenodd"/><path d="M269.9,118.4h-1.6c-.035-.175-.058-.344-.1-.508a.841.841,0,0,0-1.048-.6.764.764,0,0,0-.713.812c-.007.443.312.665.641.844.589.32,1.2.6,1.795.909a2.089,2.089,0,0,1-.45,3.924,4.124,4.124,0,0,1-2.248-.017,1.983,1.983,0,0,1-1.466-2.3h1.631a6.445,6.445,0,0,0,.112.674.844.844,0,0,0,.925.647.907.907,0,0,0,.97-.542.841.841,0,0,0-.333-1.082c-.541-.347-1.124-.631-1.691-.939-.218-.119-.455-.208-.659-.347a1.827,1.827,0,0,1-.856-1.821,1.852,1.852,0,0,1,1.31-1.575,3.7,3.7,0,0,1,2.489-.069A1.751,1.751,0,0,1,269.9,118.4Z" transform="translate(-109.447 -6.424)" fill="#9d9d9d" fill-rule="evenodd"/><path d="M214.116,121.477h1.661c.007.1.012.187.019.271a1.02,1.02,0,0,0,1.461.967.846.846,0,0,0,.389-1.34,2.717,2.717,0,0,0-.763-.579c-.52-.291-1.068-.532-1.595-.812a1.831,1.831,0,0,1-1.073-1.7,1.764,1.764,0,0,1,1.072-1.693,3.518,3.518,0,0,1,2.86-.134,1.747,1.747,0,0,1,1.2,1.918h-1.632a4.833,4.833,0,0,0-.122-.574.886.886,0,0,0-1.108-.508.725.725,0,0,0-.6.916,1.526,1.526,0,0,0,.629.724c.583.353,1.217.619,1.82.94a2.083,2.083,0,0,1-.474,3.891,4.087,4.087,0,0,1-2.283-.018A1.99,1.99,0,0,1,214.116,121.477Z" transform="translate(-74.612 -6.416)" fill="#9d9d9d" fill-rule="evenodd"/><path d="M161.089,110.075v2.069h1.29v1.084c-.345,0-.677.008-1.01,0-.207-.007-.286.065-.284.278.007,1.381-.007,2.763.009,4.144.007.628.3.863.926.823.111-.007.221-.024.361-.04v1.12a12.793,12.793,0,0,1-1.777-.017,1.276,1.276,0,0,1-1.122-1.4c0-2.315,0-4.629-.007-6.944a.464.464,0,0,1,.321-.5C160.2,110.514,160.6,110.31,161.089,110.075Z" transform="translate(-36.988 -2.186)" fill="#9d9d9d" fill-rule="evenodd"/><path d="M310.818,152.262h-.9v-.389c0-1.469,0-2.939,0-4.408a3.38,3.38,0,0,0-.058-.592,1.166,1.166,0,0,0-1.032-1.067,1.239,1.239,0,0,0-1.371.679,4.263,4.263,0,0,0-.325,1.469c-.044,1.281-.015,2.565-.015,3.847v.459h-.806v-9.53h.807v3.223a5.822,5.822,0,0,1,1.187-.747,1.764,1.764,0,0,1,2.435,1.744c.033,1.37.009,2.74.02,4.109C310.757,151.453,310.8,151.847,310.818,152.262Z" transform="translate(-138.098 -24.672)" fill="#9d9d9d" fill-rule="evenodd"/><path d="M362.128,152.264h-.9V151.8q0-2.11,0-4.221a5.058,5.058,0,0,0-.041-.633,1.191,1.191,0,0,0-1.008-1.136,1.277,1.277,0,0,0-1.433.7,4.117,4.117,0,0,0-.306,1.4c-.04,1.306-.014,2.615-.014,3.922v.425h-.8v-9.527h.785V146l.135.1a1.1,1.1,0,0,1,.126-.258,2.009,2.009,0,0,1,2.3-.589,1.8,1.8,0,0,1,1.088,1.9c.008,1.3.005,2.59.017,3.885C362.079,151.431,362.109,151.829,362.128,152.264Z" transform="translate(-173.437 -24.676)" fill="#9d9d9d" fill-rule="evenodd"/><path d="M256.436,152.265H255.6c0-.158,0-.3,0-.446-.01-1.568,0-3.136-.038-4.7a1.215,1.215,0,0,0-1.109-1.322,1.376,1.376,0,0,0-1.483,1,3.756,3.756,0,0,0-.165,1.061c-.018,1.455-.007,2.911-.007,4.4h-.807V142.73h.8v3.34a2.5,2.5,0,0,0,.211-.192,2,2,0,0,1,2.177-.689,1.566,1.566,0,0,1,1.2,1.412,6.431,6.431,0,0,1,.06.854C256.439,149.047,256.436,150.639,256.436,152.265Z" transform="translate(-100.696 -24.672)" fill="#9d9d9d" fill-rule="evenodd"/><path d="M176.659,145.288c-.751.946-1.476,1.876-2.222,2.789a.421.421,0,0,0-.021.609c.756,1.08,1.491,2.174,2.232,3.264.054.08.1.166.191.315-.354,0-.658.019-.957-.011-.092-.009-.19-.139-.253-.235-.759-1.153-1.513-2.309-2.331-3.561v3.782h-.834v-9.528h.8v5.523l.084.023,1.62-2.071a2.135,2.135,0,0,0,.248-.326A1.1,1.1,0,0,1,176.659,145.288Z" transform="translate(-45.934 -24.66)" fill="#9d9d9d" fill-rule="evenodd"/><path d="M208.008,157.508h-.842v-6.981h.823c.012.232.024.471.039.765.141-.15.237-.258.34-.36a1.978,1.978,0,0,1,2.211-.428,1.643,1.643,0,0,1,1.031,1.7c.029,1.431.019,2.864.033,4.3,0,.322.035.644.056,1h-.908V157.1c0-1.47,0-2.939,0-4.409a3.355,3.355,0,0,0-.064-.628,1.133,1.133,0,0,0-.96-1.005,1.313,1.313,0,0,0-1.375.543,2.376,2.376,0,0,0-.382,1.454q0,2,0,4Z" transform="translate(-69.83 -29.916)" fill="#9d9d9d" fill-rule="evenodd"/><path d="M234.861,116.81h1.656v7.336h-1.656Z" transform="translate(-88.901 -6.823)" fill="#9d9d9d" fill-rule="evenodd"/><path d="M242.387,146.007v1.5H243.5v.665H242.4c-.008.171-.019.291-.019.412,0,1.406-.008,2.813,0,4.218.008.938.179,1.082,1.113,1.022.086-.005.173-.016.281-.027v.725a10.912,10.912,0,0,1-1.306-.011,1.034,1.034,0,0,1-.915-1.167c-.008-1.518,0-3.036,0-4.554,0-.647.026-1.3-.01-1.941-.021-.373.092-.585.449-.681A3.805,3.805,0,0,0,242.387,146.007Z" transform="translate(-93.497 -26.929)" fill="#9d9d9d" fill-rule="evenodd"/><path d="M394.492,142.693h.778v9.54h-.778Z" transform="translate(-198.824 -24.647)" fill="#9d9d9d" fill-rule="evenodd"/></g></svg>