<svg width="27" height="26" viewBox="0 0 40 38" fill="none" xmlns="http://www.w3.org/2000/svg">
<path d="M25.2968 26.3202C26.1246 26.3202 26.7966 26.9758 26.7966 27.7833V29.5713C26.7966 34.2188 22.9204 38 18.154 38H8.66015C3.88597 38 0 34.2093 0 29.5504C0 28.7428 0.672009 28.0892 1.49985 28.0892C2.32768 28.0892 2.99969 28.7428 2.99969 29.5504C2.99969 32.5981 5.53969 35.0739 8.66015 35.0739H18.154C21.2667 35.0739 23.7969 32.6057 23.7969 29.5713V27.7833C23.7969 26.9758 24.4689 26.3202 25.2968 26.3202ZM38.4997 17.5354C39.1074 17.5354 39.6548 17.8926 39.8866 18.4418C40.1184 18.989 39.9879 19.6198 39.5593 20.0378L33.8677 25.5651C33.5736 25.8483 33.1918 25.9927 32.8081 25.9927C32.4244 25.9927 32.0387 25.8483 31.7465 25.5613C31.1621 24.9875 31.1621 24.0622 31.7504 23.4922L34.8689 20.4634H15.0982C14.2704 20.4634 13.5964 19.8079 13.5964 19.0004C13.5964 18.1928 14.2704 17.5354 15.0982 17.5354H38.4997ZM18.1349 0C22.911 0 26.797 3.79065 26.797 8.44964V10.2186C26.797 11.0242 26.125 11.6798 25.2972 11.6798C24.4693 11.6798 23.7973 11.0242 23.7973 10.2186V8.44964C23.7973 5.40192 21.2573 2.92612 18.1349 2.92612H8.64301C5.53034 2.92612 3.00008 5.39622 3.00008 8.42874V22.8978C3.00008 23.7053 2.32807 24.3609 1.50024 24.3609C0.672399 24.3609 0.000389571 23.7053 0.000389571 22.8978V8.42874C0.000389571 3.78115 3.87662 0 8.64301 0H18.1349ZM31.7426 12.4453C32.327 11.8677 33.2736 11.8639 33.8638 12.4339L35.2974 13.8172C35.8876 14.3872 35.8915 15.3125 35.3091 15.8863C35.015 16.1752 34.6293 16.3215 34.2436 16.3215C33.8619 16.3215 33.4801 16.179 33.1879 15.8977L31.7523 14.5126C31.1641 13.9445 31.1602 13.0172 31.7426 12.4453Z" fill="#BBBBBB"/>
</svg>
